HIERARCHY
ROOT Bip001_Pelvis
{
  OFFSET 33.2923 95.8902 -28.781
  CHANNELS 6 Xposition Yposition Zposition Zrotation Xrotation Yrotation
  JOINT Bip001_Spine
  {
    OFFSET 1.4188e-005 10.2191 -0.0116013
    CHANNELS 3 Zrotation Xrotation Yrotation
    JOINT Bip001_L_Thigh
    {
      OFFSET 11.0458 -10.2192 0.0116197
      CHANNELS 3 Zrotation Xrotation Yrotation
      JOINT Bip001_L_Calf
      {
        OFFSET -0.707118 -44.0221 0.360014
        CHANNELS 3 Zrotation Xrotation Yrotation
        JOINT Bip001_L_Foot
        {
          OFFSET -0.651902 -40.5938 -3.56146
          CHANNELS 3 Zrotation Xrotation Yrotation
          JOINT Bip001_L_Toe0
          {
            OFFSET 0.0530839 -10.2181 13.1504
            CHANNELS 3 Zrotation Xrotation Yrotation
            End Site
            {
              OFFSET -1.02532e-005 0 7.55606
            }
          }
        }
      }
    }
    JOINT Bip001_R_Thigh
    {
      OFFSET -11.0458 -10.2191 0.0115893
      CHANNELS 3 Zrotation Xrotation Yrotation
      JOINT Bip001_R_Calf
      {
        OFFSET 0.706994 -44.0221 0.35984
        CHANNELS 3 Zrotation Xrotation Yrotation
        JOINT Bip001_R_Foot
        {
          OFFSET 0.651786 -40.5938 -3.5613
          CHANNELS 3 Zrotation Xrotation Yrotation
          JOINT Bip001_R_Toe0
          {
            OFFSET -0.0531479 -10.2181 13.1504
            CHANNELS 3 Zrotation Xrotation Yrotation
            End Site
            {
              OFFSET -1.02894e-005 0 7.55606
            }
          }
        }
      }
    }
    JOINT Bip001_Spine1
    {
      OFFSET 1.87041e-005 14.5736 1.08638
      CHANNELS 3 Zrotation Xrotation Yrotation
      JOINT Bip001_Spine2
      {
        OFFSET 2.24614e-005 14.5058 -1.69078
        CHANNELS 3 Zrotation Xrotation Yrotation
        JOINT Bip001_Neck
        {
          OFFSET 2.20278e-005 15.3945 -0.489414
          CHANNELS 3 Zrotation Xrotation Yrotation
          JOINT Bip001_L_Clavicle
          {
            OFFSET 6.06036 -0.000579998 0.00836775
            CHANNELS 3 Zrotation Xrotation Yrotation
            JOINT Bip001_L_UpperArm
            {
              OFFSET 11.5509 -0.0600302 0.00193952
              CHANNELS 3 Zrotation Xrotation Yrotation
              JOINT Bip001_L_Forearm
              {
                OFFSET 25.9523 0.0806089 -2.15551
                CHANNELS 3 Zrotation Xrotation Yrotation
                JOINT Bip001_L_Hand
                {
                  OFFSET 32.2476 0.153767 1.63968
                  CHANNELS 3 Zrotation Xrotation Yrotation
                  JOINT Bip001_L_Finger0
                  {
                    OFFSET 6.04639 -2.20976 5.90322
                    CHANNELS 3 Zrotation Xrotation Yrotation
                    End Site
                    {
                      OFFSET 4.22376 -1.43895 0.606486
                    }
                  }
                  JOINT Bip001_L_Finger1
                  {
                    OFFSET 11.0826 -0.704819 -0.198153
                    CHANNELS 3 Zrotation Xrotation Yrotation
                    End Site
                    {
                      OFFSET 6.20028 -0.397518 -0.0787166
                    }
                  }
                }
              }
            }
          }
          JOINT Bip001_R_Clavicle
          {
            OFFSET -6.06036 -0.000563197 0.00835105
            CHANNELS 3 Zrotation Xrotation Yrotation
            JOINT Bip001_R_UpperArm
            {
              OFFSET -11.5509 -0.0599978 0.00190698
              CHANNELS 3 Zrotation Xrotation Yrotation
              JOINT Bip001_R_Forearm
              {
                OFFSET -25.9523 0.080682 -2.1559
                CHANNELS 3 Zrotation Xrotation Yrotation
                JOINT Bip001_R_Hand
                {
                  OFFSET -32.2476 0.153858 1.63991
                  CHANNELS 3 Zrotation Xrotation Yrotation
                  JOINT Bip001_R_Finger0
                  {
                    OFFSET -6.04641 -2.20974 5.90321
                    CHANNELS 3 Zrotation Xrotation Yrotation
                    End Site
                    {
                      OFFSET -4.22376 -1.43894 0.606474
                    }
                  }
                  JOINT Bip001_R_Finger1
                  {
                    OFFSET -11.0826 -0.704789 -0.198184
                    CHANNELS 3 Zrotation Xrotation Yrotation
                    End Site
                    {
                      OFFSET -6.20028 -0.397501 -0.0787338
                    }
                  }
                }
              }
            }
          }
          JOINT Bip001_Head
          {
            OFFSET 1.09673e-005 11.2744 2.05948
            CHANNELS 3 Zrotation Xrotation Yrotation
            End Site
            {
              OFFSET 2.89576e-005 20.8808 -2.77728e-005
            }
          }
        }
      }
    }
  }
}
MOTION
Frames:	16
Frame Time:	0.04
32.7012 95.9138 -29.2957 0.146264 -0.630104 -0.218561 -0.0681754 3.05032 -0.388738 4.95752 -3.89105 6.64697 -0.460802 7.25987 -10.391 5.95124 -0.802779 -0.254692 -2.91664 -5.48167 4.99986 -3.15004 -4.81691 0.37976 0.551044 10.8667 -0.148837 -5.26027 -9.34401 2.50899 2.01385 -6.8565 2.06974 -0.120937 6.08335 -0.78747 -0.120886 6.08334 -0.787772 -6.32607 -3.94343 -3.07964 -17.8206 5.77056 -2.15188 -49.7643 41.2337 -1.97575 12.7383 0.581413 -24.3875 7.86344 1.10523 -2.1211 -3.18055e-015 0 -0 -0 -6.36111e-015 -0 35.0742 11.4813 15.1548 46.5848 41.904 5.38164 -9.82201 -2.27483 10.1506 -6.36487 0.810666 2.73231 -1.59028e-015 1.59028e-014 -0 -3.18055e-015 1.59028e-014 -0 6.81951 16.1487 -6.93317 
32.7552 95.9128 -29.2659 0.144732 -0.630096 -0.3579 -0.0701565 3.05032 -0.378417 4.91327 -3.84556 6.52156 -0.46521 7.26624 -10.1662 5.78155 -0.893725 -0.254698 -2.97669 -5.45752 5.05989 -3.2105 -4.79947 0.291625 0.552157 10.8177 -0.116657 -5.21693 -9.36342 2.64645 2.01736 -6.88826 2.08948 -0.124112 6.10675 -0.754626 -0.124091 6.10674 -0.754644 -5.7078 -3.94834 -3.24181 -18.3027 5.75529 -2.23627 -49.706 41.2645 -2.08132 12.837 0.829726 -24.4687 7.80564 0.933917 -2.29475 -3.18055e-015 6.36111e-015 1.59028e-015 0 3.18056e-015 -0 34.5462 11.5789 15.2594 45.553 41.5246 6.32848 -10.2786 -2.14078 10.3619 -6.86632 1.19312 2.21809 1.59028e-015 0 -0 3.18055e-015 0 -1.59028e-015 6.21925 16.2797 -6.72109 
32.8309 95.9121 -29.2329 0.173316 -0.625157 -0.529636 -0.082361 3.05012 -0.350787 4.80941 -3.77094 6.43858 -0.432203 7.19261 -9.93841 5.93229 -0.854799 -0.254696 -2.95281 -5.47539 5.03413 -3.3049 -4.82348 0.230009 0.567488 10.8427 -0.0786053 -5.16251 -9.39474 2.8138 2.01851 -6.89158 2.0981 -0.146199 6.10712 -0.698682 -0.146199 6.1071 -0.698684 -4.97265 -3.84305 -3.42333 -18.94 5.60545 -2.28934 -49.5608 41.3189 -2.1815 12.9325 0.975785 -24.6536 7.8816 0.978545 -2.49523 6.36111e-015 0 -1.59028e-015 6.36111e-015 -3.18056e-015 -0 34.1298 11.607 15.3939 44.1514 40.818 7.30978 -10.4841 -0.0182931 10.5083 -10.0915 0.887673 1.35056 3.18055e-015 9.54166e-015 -0 6.36111e-015 6.36111e-015 -0 5.56853 16.3709 -6.48237 
32.911 95.9204 -29.1815 0.224334 -0.648824 -0.665161 -0.0932692 3.04933 -0.332631 4.68758 -3.58903 6.18077 -0.406255 6.99023 -9.54863 5.60833 -0.960311 -0.234684 -3.03427 -5.37239 5.0853 -3.40079 -4.88894 0.156466 0.534154 11.0421 -0.0399363 -5.06876 -9.41524 2.95961 2.01885 -6.90672 2.09633 -0.169189 6.10723 -0.660248 -0.169189 6.1072 -0.660247 -4.21797 -3.91609 -3.54992 -19.6478 5.6109 -2.24813 -49.4572 41.3913 -2.24979 12.9872 0.786842 -24.8902 7.96224 0.963031 -2.50354 -0 0 1.59028e-015 0 3.18056e-015 -0 33.484 11.7272 15.4379 43.3013 41.3205 7.81101 -10.8878 -3.94103 10.9432 -10.0696 1.51648 1.17437 -3.18055e-015 3.18055e-015 3.18055e-015 -8.82782e-032 3.18056e-015 1.59028e-015 4.80398 16.6169 -6.14139 
32.9824 95.9261 -29.1116 0.319546 -0.680896 -0.696236 -0.107642 3.04297 -0.329727 4.53188 -3.40233 6.18346 -0.366663 6.78489 -9.51889 5.57537 -0.943033 -0.235202 -3.03795 -5.35835 5.11845 -3.54606 -4.81674 -0.162799 0.482084 11.0759 0.00158842 -4.97759 -9.50751 3.24641 2.01984 -6.9043 2.1053 -0.198053 6.0865 -0.657247 -0.197723 6.08651 -0.660246 -3.7135 -3.89691 -3.60243 -20.1275 5.55434 -2.25333 -49.2998 41.1884 -2.35491 12.8132 0.661558 -25.1416 8.00029 0.948658 -2.53646 6.36111e-015 3.18055e-015 -3.18055e-015 3.18055e-015 0 -3.18055e-015 33.0226 11.7506 15.5518 42.8746 41.3692 7.95143 -11.0566 -6.21924 11.4515 -11.7458 1.31578 0.413161 3.18055e-015 3.18055e-015 -0 6.36111e-015 6.36111e-015 1.59028e-015 4.27448 16.7886 -5.87836 
33.0459 95.9235 -29.0434 0.420393 -0.684092 -0.664182 -0.123454 3.01485 -0.32745 4.37918 -3.29727 6.74124 -0.285066 6.71226 -10.082 5.77798 -0.857945 -0.248665 -2.96849 -5.37074 5.03849 -3.68778 -4.73043 -0.50447 0.438242 11.074 0.081707 -4.9266 -9.59994 3.46803 2.02582 -6.92843 2.11388 -0.230368 6.03037 -0.66386 -0.230528 6.03038 -0.662102 -3.13611 -4.071 -3.6506 -20.7681 5.64613 -2.09831 -49.1863 41.1565 -2.37278 12.8251 0.601272 -25.38 8.08106 0.985641 -2.56689 9.54166e-015 -3.18055e-015 3.18055e-015 3.18055e-015 -3.18056e-015 4.77083e-015 32.5615 11.9544 15.5853 42.7676 41.1901 7.66824 -11.2602 -9.60559 12.0513 -11.9239 0.71775 0.308277 -0 -3.18055e-015 -0 -3.18055e-015 -3.18056e-015 -0 3.61655 17.1273 -5.54187 
33.0998 95.924 -28.9824 0.531663 -0.666355 -0.637451 -0.145591 2.9825 -0.325193 4.25118 -3.14716 6.70986 -0.269528 6.51027 -10.0749 5.4439 -0.995013 -0.228173 -3.10814 -5.24459 5.12084 -3.81751 -4.70456 -0.642476 0.418082 11.1538 0.080562 -4.92578 -9.69186 3.56007 2.03226 -6.95065 2.12593 -0.274792 5.96579 -0.657462 -0.274848 5.9658 -0.657172 -2.73593 -4.2636 -3.66063 -21.2578 5.76682 -1.92622 -49.0591 41.04 -2.39313 12.8765 0.638844 -25.5848 8.08341 1.00094 -2.59074 3.18055e-015 6.36111e-015 1.59028e-015 -3.53113e-031 1.27222e-014 1.59028e-015 32.414 12.1873 15.5659 42.8627 41.3459 6.90749 -11.6773 -11.719 12.7083 -12.2765 0.508612 -0.0135615 -3.18055e-015 -3.18055e-015 -9.54166e-015 -5.29669e-031 -3.18056e-015 -9.54166e-015 3.14173 17.4587 -5.27809 
33.1369 95.9176 -28.9166 0.635933 -0.648775 -0.607266 -0.16828 2.94982 -0.322745 4.10693 -3.00857 6.76367 -0.22782 6.33691 -10.1723 5.63915 -0.833267 -0.244733 -3.01183 -5.32318 5.06377 -3.92875 -4.69828 -0.833758 0.382094 11.296 0.0926352 -4.89592 -9.81148 3.70137 2.0356 -6.97888 2.1282 -0.320227 5.90053 -0.643274 -0.320227 5.90054 -0.643274 -2.36961 -4.40666 -3.67837 -21.6692 5.83879 -1.7619 -49.0191 40.8409 -2.40044 12.9028 0.765524 -25.7349 8.1155 0.829966 -2.70851 3.18055e-015 6.36111e-015 -1.59028e-015 3.18055e-015 0 -0 32.2449 12.3876 15.6201 43.1626 41.4606 5.9499 -12.2182 -12.334 13.2159 -11.8939 0.827804 0.103244 -1.76556e-031 3.18055e-015 3.18055e-015 -0 0 3.18055e-015 2.67531 17.7097 -5.03261 
33.1621 95.9144 -28.8462 0.706367 -0.643188 -0.573773 -0.184042 2.92132 -0.319891 4.04384 -2.91408 6.69791 -0.261472 6.24111 -10.1568 5.66297 -0.815047 -0.247647 -3.05783 -5.33106 5.06967 -4.00364 -4.63414 -1.02242 0.350836 11.3133 0.137383 -4.88838 -9.89391 3.82738 2.03706 -6.9763 2.13002 -0.352411 5.8436 -0.631604 -0.352411 5.8436 -0.631605 -2.09286 -4.5043 -3.68464 -21.9806 5.87982 -1.62655 -48.9598 40.6343 -2.42207 12.8273 0.811202 -25.8953 8.05092 0.852734 -2.70139 6.36111e-015 9.54166e-015 -1.59028e-015 3.18055e-015 9.54167e-015 -0 32.1156 12.5496 15.727 43.3926 41.1598 5.19592 -12.6058 -11.3409 13.3557 -11.8592 0.865003 0.551448 -3.53112e-031 -6.36111e-015 -3.18055e-015 -3.53113e-031 -6.36111e-015 -3.18055e-015 2.30243 17.8823 -4.82647 
33.1684 95.9129 -28.7656 0.756165 -0.63738 -0.543013 -0.205139 2.88922 -0.304184 3.99975 -2.74194 6.76327 -0.274331 6.03681 -10.2687 5.78793 -0.643832 -0.262272 -2.94816 -5.4447 4.98145 -4.03746 -4.56061 -1.27084 0.311774 11.3469 0.172231 -4.86908 -9.9761 3.93364 2.04193 -7.00997 2.1509 -0.39566 5.77946 -0.599301 -0.39566 5.77947 -0.599302 -1.83831 -4.61205 -3.68954 -22.2745 5.93255 -1.49272 -48.9734 40.5878 -2.31959 12.8316 0.828264 -25.979 8.09188 0.916188 -2.69669 -6.36111e-015 -6.36111e-015 -0 -6.36111e-015 -6.36111e-015 -0 32.0998 12.6994 15.7073 43.7705 41.4814 4.18554 -13.2334 -10.5775 13.4894 -11.421 0.947128 1.14981 -6.36111e-015 -6.36111e-015 -3.18055e-015 -6.36111e-015 -9.54167e-015 -1.59028e-015 2.03023 18.1251 -4.67086 
33.166 95.913 -28.6924 0.803752 -0.599438 -0.482557 -0.228436 2.85164 -0.297808 3.96445 -2.66095 6.80993 -0.220762 5.95079 -10.3802 5.52936 -0.810518 -0.243504 -3.07255 -5.30695 5.08995 -4.0716 -4.49941 -1.64871 0.274172 11.3594 0.212967 -4.80855 -10.0597 4.14711 2.04284 -7.01627 2.14986 -0.442889 5.70442 -0.584377 -0.442889 5.70442 -0.584377 -1.61541 -4.66666 -3.7036 -22.5259 5.92762 -1.34743 -49.039 40.5276 -2.24996 12.8228 0.827216 -25.8927 8.10008 0.887179 -2.66237 6.36111e-015 3.18055e-015 -3.18055e-015 3.18055e-015 3.18056e-015 -1.59028e-015 32.0346 12.7951 15.7312 44.3633 41.7969 2.92689 -13.8497 -10.0306 13.8531 -9.93846 2.25401 1.77566 -6.36111e-015 9.54166e-015 1.59028e-015 -6.36111e-015 6.36111e-015 -0 1.76273 18.2696 -4.53275 
33.153 95.9323 -28.6196 0.842874 -0.55122 -0.442714 -0.250269 2.81888 -0.290251 3.94717 -2.44656 5.76198 -0.344624 5.53113 -9.38159 5.5136 -0.61989 -0.25576 -3.07628 -5.3003 5.09906 -4.09432 -4.36949 -2.0203 0.20792 11.1913 0.281417 -4.73186 -10.0635 4.41265 2.04316 -7.01782 2.14779 -0.486715 5.63898 -0.573471 -0.486716 5.63898 -0.573472 -1.45606 -4.75924 -3.70452 -22.7534 5.97344 -1.21768 -49.1146 40.4143 -2.12028 12.805 0.822018 -25.8047 8.09558 0.891215 -2.64067 8.82781e-032 3.18055e-015 -1.59028e-015 -3.18055e-015 3.18056e-015 1.59028e-015 31.9974 12.8972 15.6933 44.9718 41.8485 1.81405 -14.3441 -9.68982 14.0468 -9.45539 2.66243 2.07174 3.18055e-015 -3.18055e-015 -1.59028e-015 6.36111e-015 -3.18056e-015 -1.59028e-015 1.53391 18.4012 -4.40822 
33.144 95.9443 -28.5354 0.887328 -0.547522 -0.422819 -0.274538 2.79144 -0.28076 3.90114 -2.18596 5.33515 -0.332616 5.13917 -8.96892 5.27972 -0.602219 -0.240219 -3.12759 -5.20511 5.13247 -4.13192 -4.26385 -2.42541 0.145354 11.156 0.336485 -4.61911 -10.1316 4.75335 2.04083 -6.98786 2.13597 -0.536485 5.58416 -0.548982 -0.536395 5.58417 -0.549057 -1.27846 -4.9275 -3.70554 -23.0014 6.09418 -1.08103 -49.2645 40.3419 -1.88905 12.7911 0.817692 -25.7296 8.06575 0.948091 -2.53719 -3.18055e-015 1.59028e-014 -1.59028e-015 7.06225e-031 1.27222e-014 -3.18055e-015 31.9668 13.0274 15.5032 45.6505 42.0161 0.584507 -14.9205 -9.69398 14.3082 -8.99765 3.04349 2.28183 -1.76556e-031 6.36111e-015 1.59028e-015 -2.64834e-031 9.54167e-015 1.59028e-015 1.30437 18.6227 -4.27857 
33.1202 95.9429 -28.4595 0.89338 -0.531329 -0.389107 -0.289198 2.76252 -0.275589 3.88439 -2.06198 5.73562 -0.252616 4.99447 -9.44555 5.43922 -0.453579 -0.255729 -3.06455 -5.3171 5.07447 -4.12742 -4.18132 -2.82447 0.0666221 11.1559 0.388792 -4.49408 -10.2169 5.11128 2.03109 -6.93719 2.10725 -0.56532 5.52638 -0.546454 -0.565315 5.5264 -0.546523 -1.15432 -5.10067 -3.68299 -23.1982 6.22152 -0.927854 -49.4234 40.3065 -1.6624 12.6962 0.702935 -25.6421 8.06912 0.996984 -2.36607 0 0 -0 -3.18055e-015 0 1.59028e-015 31.9819 13.1498 15.2988 46.2238 41.8826 -0.514782 -15.4312 -9.35441 14.5645 -8.68686 3.46034 2.46122 3.18055e-015 -6.36111e-015 -1.59028e-015 3.18055e-015 -6.36111e-015 -1.59028e-015 1.10382 18.8447 -4.14785 
33.0814 95.928 -28.4203 0.886091 -0.502829 -0.414992 -0.297283 2.74144 -0.270451 3.90569 -2.17847 7.17753 -0.0768352 5.30548 -10.849 5.61563 -0.530389 -0.26202 -2.96177 -5.38504 5.01988 -4.089 -4.15935 -2.9213 0.0523296 11.1459 0.411552 -4.49627 -10.3003 5.172 2.02112 -6.91624 2.10462 -0.583308 5.48422 -0.530232 -0.582706 5.48423 -0.530139 -1.14965 -5.44309 -3.60835 -23.2729 6.5344 -0.757082 -49.568 40.405 -1.50729 12.7183 0.733226 -25.5185 8.11531 0.965773 -2.32709 6.36111e-015 3.18055e-015 -1.59028e-015 9.54166e-015 6.36111e-015 -1.59028e-015 32.104 13.3949 14.9786 46.6679 41.981 -1.62528 -16.0696 -9.38916 15.0217 -8.34887 3.89662 2.79223 3.18055e-015 -3.18055e-015 -1.59028e-015 -1.76556e-031 -3.18056e-015 -3.18055e-015 1.05162 19.2442 -4.05167 
33.042 95.9214 -28.399 0.854682 -0.525644 -0.418274 -0.302759 2.73718 -0.267722 3.98796 -2.15083 6.91174 -0.136991 5.32799 -10.591 5.51693 -0.557533 -0.253175 -2.9848 -5.40697 5.01398 -4.02856 -4.1076 -2.86009 0.075379 11.1266 0.3896 -4.52738 -10.3028 5.12623 2.01828 -6.91396 2.11083 -0.595383 5.4825 -0.516858 -0.594709 5.48251 -0.516704 -1.12403 -5.749 -3.57576 -23.3325 6.82306 -0.657745 -49.6693 40.4468 -1.39195 12.6861 0.717028 -25.3612 7.98196 1.02521 -2.26369 -8.82781e-032 3.18055e-015 1.59028e-015 -3.18055e-015 0 -1.59028e-015 32.125 13.618 14.7291 47.2133 41.6965 -2.74957 -16.7752 -8.96249 15.6601 -8.27211 4.32563 3.25708 -6.36111e-015 -3.18055e-015 -0 -3.18055e-015 0 -0 0.970933 19.5553 -3.97891 
